<svg width="70" height="71" viewBox="0 0 70 71" fill="none" xmlns="http://www.w3.org/2000/svg">
<path d="M63.2 6.47461H56.7V4.57461C56.7 2.27461 54.9 0.474609 52.6 0.474609C50.3 0.474609 48.5 2.27461 48.5 4.57461V6.47461H25.5V4.57461C25.5 2.27461 23.7 0.474609 21.4 0.474609C19.1 0.474609 17.3 2.27461 17.3 4.57461V6.57461C17.2 6.47461 17 6.47461 16.9 6.47461H11.5C7.7 6.47461 4.7 9.57461 4.7 13.2746V36.5746C4.7 37.3746 5.3 37.9746 6.1 37.9746C6.9 37.9746 7.5 37.3746 7.5 36.5746V20.5746H56.8C57.6 20.5746 58.2 19.9746 58.2 19.1746C58.2 18.3746 57.6 17.7746 56.8 17.7746H7.4V13.2746C7.4 10.9746 9.2 9.17461 11.5 9.17461H16.9C17 9.17461 17.1 9.17461 17.3 9.07461V10.8746C17.3 13.1746 19.1 14.9746 21.4 14.9746C23.7 14.9746 25.5 13.1746 25.5 10.8746V9.27461H48.5V10.9746C48.5 13.2746 50.3 15.0746 52.6 15.0746C54.9 15.0746 56.7 13.2746 56.7 10.9746V9.27461H63.2C65.5 9.27461 67.3 11.0746 67.3 13.3746V65.3746C67.3 66.7746 66.2 67.8746 64.8 67.8746C63.4 67.8746 62.3 66.7746 62.3 65.3746V61.8746C62.3 61.0746 61.7 60.4746 60.9 60.4746H45.1C44.3 60.4746 43.7 61.0746 43.7 61.8746C43.7 62.6746 44.3 63.2746 45.1 63.2746H59.6V65.4746C59.6 66.3746 59.8 67.1746 60.2 67.9746H5.2C3.8 67.9746 2.7 66.8746 2.7 65.4746V63.2746H33.3C34.1 63.2746 34.7 62.6746 34.7 61.8746C34.7 61.0746 34.1 60.4746 33.3 60.4746H19.7C22.1 58.3746 23.6 55.3746 23.6 51.9746C23.6 45.7746 18.6 40.7746 12.4 40.7746C6.2 40.7746 1.2 45.7746 1.2 51.9746C1.2 55.3746 2.7 58.3746 5.1 60.4746H1.4C0.6 60.4746 0 61.0746 0 61.8746V65.3746C0 68.1746 2.3 70.4746 5.2 70.4746H64.8C67.7 70.4746 70 68.1746 70 65.2746V13.2746C70 9.57461 66.9 6.47461 63.2 6.47461ZM22.7 10.9746C22.7 11.7746 22.1 12.3746 21.3 12.3746C20.5 12.3746 19.9 11.7746 19.9 10.9746V4.57461C19.9 3.77461 20.5 3.17461 21.3 3.17461C22.1 3.17461 22.7 3.77461 22.7 4.57461V10.9746ZM53.9 10.9746C53.9 11.7746 53.3 12.3746 52.5 12.3746C51.7 12.3746 51.1 11.7746 51.1 10.9746V4.57461C51.1 3.77461 51.7 3.17461 52.5 3.17461C53.3 3.17461 53.9 3.77461 53.9 4.57461V10.9746ZM3.9 51.8746C3.9 47.1746 7.7 43.3746 12.4 43.3746C17.1 43.3746 20.9 47.1746 20.9 51.8746C20.9 56.5746 17.1 60.3746 12.4 60.3746C7.7 60.3746 3.9 56.5746 3.9 51.8746Z" fill="#024F9F"/>
<path d="M64 18.2745C63.7 17.9745 63.4 17.8745 63 17.8745C62.6 17.8745 62.3 17.9745 62 18.2745C61.7 18.5745 61.6 18.8745 61.6 19.2745C61.6 19.6745 61.7 19.9745 62 20.2745C62.3 20.5745 62.6 20.6745 63 20.6745C63.4 20.6745 63.7 20.5745 64 20.2745C64.3 19.9745 64.4 19.6745 64.4 19.2745C64.4 18.8745 64.3 18.4745 64 18.2745Z" fill="#024F9F"/>
<path d="M40.8 60.7745C40.5 60.4745 40.2 60.3745 39.8 60.3745C39.4 60.3745 39.1 60.4745 38.8 60.7745C38.5 61.0745 38.4 61.3745 38.4 61.7745C38.4 62.1745 38.5 62.4745 38.8 62.7745C39.1 63.0745 39.4 63.1745 39.8 63.1745C40.2 63.1745 40.5 63.0745 40.8 62.7745C41.1 62.4745 41.2 62.1745 41.2 61.7745C41.2 61.3745 41.1 61.0745 40.8 60.7745Z" fill="#024F9F"/>
<path d="M30.9 42.0747C28 42.0747 25.7 44.3747 25.7 47.2747C25.7 50.1747 28 52.4747 30.9 52.4747C33.8 52.4747 36.1 50.1747 36.1 47.2747C36.1 44.3747 33.8 42.0747 30.9 42.0747ZM30.9 49.6747C29.5 49.6747 28.4 48.5747 28.4 47.1747C28.4 45.7747 29.5 44.6747 30.9 44.6747C32.3 44.6747 33.4 45.7747 33.4 47.1747C33.4 48.5747 32.3 49.6747 30.9 49.6747Z" fill="#024F9F"/>
<path d="M43.7 42.0747C40.8 42.0747 38.5 44.3747 38.5 47.2747C38.5 50.1747 40.8 52.4747 43.7 52.4747C46.6 52.4747 48.9 50.1747 48.9 47.2747C48.9 44.3747 46.6 42.0747 43.7 42.0747ZM43.7 49.6747C42.3 49.6747 41.2 48.5747 41.2 47.1747C41.2 45.7747 42.3 44.6747 43.7 44.6747C45.1 44.6747 46.2 45.7747 46.2 47.1747C46.2 48.5747 45 49.6747 43.7 49.6747Z" fill="#024F9F"/>
<path d="M56.5 42.0747C53.6 42.0747 51.3 44.3747 51.3 47.2747C51.3 50.1747 53.6 52.4747 56.5 52.4747C59.4 52.4747 61.7 50.1747 61.7 47.2747C61.7 44.3747 59.3 42.0747 56.5 42.0747ZM56.5 49.6747C55.1 49.6747 54 48.5747 54 47.1747C54 45.7747 55.1 44.6747 56.5 44.6747C57.9 44.6747 59 45.7747 59 47.1747C59 48.5747 57.8 49.6747 56.5 49.6747Z" fill="#024F9F"/>
<path d="M18.2 27.7744C15.3 27.7744 13 30.0744 13 32.9744C13 35.8744 15.3 38.1744 18.2 38.1744C21.1 38.1744 23.4 35.8744 23.4 32.9744C23.4 30.1744 21 27.7744 18.2 27.7744ZM18.2 35.4744C16.8 35.4744 15.7 34.3744 15.7 32.9744C15.7 31.5744 16.8 30.4744 18.2 30.4744C19.6 30.4744 20.7 31.5744 20.7 32.9744C20.6 34.3744 19.5 35.4744 18.2 35.4744Z" fill="#024F9F"/>
<path d="M43.7 27.7744C40.8 27.7744 38.5 30.0744 38.5 32.9744C38.5 35.8744 40.8 38.1744 43.7 38.1744C46.6 38.1744 48.9 35.8744 48.9 32.9744C48.9 30.1744 46.6 27.7744 43.7 27.7744ZM43.7 35.4744C42.3 35.4744 41.2 34.3744 41.2 32.9744C41.2 31.5744 42.3 30.4744 43.7 30.4744C45.1 30.4744 46.2 31.5744 46.2 32.9744C46.2 34.3744 45 35.4744 43.7 35.4744Z" fill="#024F9F"/>
<path d="M56.5 27.7744C53.6 27.7744 51.3 30.0744 51.3 32.9744C51.3 35.8744 53.6 38.1744 56.5 38.1744C59.4 38.1744 61.7 35.8744 61.7 32.9744C61.6 30.1744 59.3 27.7744 56.5 27.7744ZM56.5 35.4744C55.1 35.4744 54 34.3744 54 32.9744C54 31.5744 55.1 30.4744 56.5 30.4744C57.9 30.4744 59 31.5744 59 32.9744C58.9 34.3744 57.8 35.4744 56.5 35.4744Z" fill="#024F9F"/>
<path d="M30.9 27.7744C28 27.7744 25.7 30.0744 25.7 32.9744C25.7 35.8744 28 38.1744 30.9 38.1744C33.8 38.1744 36.1 35.8744 36.1 32.9744C36.1 30.1744 33.8 27.7744 30.9 27.7744ZM30.9 35.4744C29.5 35.4744 28.4 34.3744 28.4 32.9744C28.4 31.5744 29.5 30.4744 30.9 30.4744C32.3 30.4744 33.4 31.5744 33.4 32.9744C33.4 34.3744 32.3 35.4744 30.9 35.4744Z" fill="#024F9F"/>
<path d="M17.2 48.5747C16.7 48.0747 15.8 48.0747 15.3 48.5747L10.8 53.0747L9.30002 51.4747C8.80002 50.9747 7.90002 50.9747 7.40002 51.4747C6.90002 51.9747 6.90002 52.8747 7.40002 53.3747L9.90002 55.8747C10.2 56.1747 10.5 56.2747 10.9 56.2747C11.3 56.2747 11.6 56.1747 11.9 55.8747L17.3 50.4747C17.8 49.9747 17.8 49.0747 17.2 48.5747Z" fill="#FF190A"/>
</svg>
