<svg width="70" height="71" viewBox="0 0 70 71" fill="none" xmlns="http://www.w3.org/2000/svg">
<path d="M62.5 56.2747C63.3 55.2747 63.7 53.9747 63.7 52.5747V44.3747C63.7 43.5747 63.1 42.9747 62.3 42.9747H56.2C53.4 42.9747 51.1 45.2747 51.1 48.0747V52.5747C51.1 53.9747 51.5 55.1747 52.3 56.2747C51.4 56.4747 50.5 56.7747 49.6 57.1747C47.7 54.3747 44.6 52.3747 41 52.0747C42.3 50.6747 43.1 48.7747 43.1 46.6747V35.4747C43.1 34.6747 42.5 34.0747 41.7 34.0747H33.4C29.8 34.0747 26.9 36.9747 26.9 40.5747V46.6747C26.9 48.7747 27.7 50.5747 29 52.0747C25.4 52.3747 22.3 54.3747 20.4 57.1747C19.6 56.7747 18.7 56.4747 17.7 56.2747C18.4 55.2747 18.9 53.9747 18.9 52.5747V44.3747C18.9 43.5747 18.3 42.9747 17.5 42.9747H11.4C8.6 42.9747 6.3 45.2747 6.3 48.0747V52.5747C6.3 53.9747 6.7 55.1747 7.5 56.2747C3.2 56.9747 0 60.6747 0 65.0747V69.1747C0 69.8747 0.6 70.4747 1.4 70.4747H68.7C69.5 70.4747 70.1 69.8747 70.1 69.0747V64.9747C70 60.6747 66.8 56.9747 62.5 56.2747ZM9 48.0747C9 46.7747 10.1 45.6747 11.4 45.6747H16.1V47.3747C16.1 48.1747 15.4 48.8747 14.6 48.8747H9V48.0747ZM9 51.5747H14.7C15.2 51.5747 15.7 51.4747 16.2 51.2747V52.4747C16.2 54.4747 14.6 56.0747 12.6 56.0747C10.6 56.0747 9 54.4747 9 52.4747V51.5747ZM13.5 58.8747L12.6 59.7747L11.7 58.8747H13.5ZM18.4 63.5747V67.6747H2.7V64.9747C2.7 61.8747 4.9 59.3747 7.9 58.8747L11.6 62.5747C11.9 62.8747 12.2 62.9747 12.6 62.9747C13 62.9747 13.3 62.8747 13.6 62.5747L17.3 58.8747C18 58.9747 18.6 59.1747 19.2 59.4747C18.6 60.8747 18.4 62.1747 18.4 63.5747ZM35 51.9747C32.1 51.9747 29.7 49.5747 29.7 46.6747V44.8747H37.9C38.8 44.8747 39.7 44.6747 40.4 44.2747V46.6747C40.3 49.5747 37.9 51.9747 35 51.9747ZM37.4 54.6747L35 57.0747L32.6 54.6747H37.4ZM29.7 40.5747C29.7 38.4747 31.4 36.8747 33.4 36.8747H40.3V39.6747C40.3 41.0747 39.2 42.1747 37.8 42.1747H29.6V40.5747H29.7ZM48.9 67.7747H46.2H23.8H21.1V65.0747H30C30.8 65.0747 31.4 64.4747 31.4 63.6747C31.4 62.8747 30.8 62.2747 30 62.2747H21.2C21.8 58.3747 24.9 55.2747 28.8 54.7747L34 59.9747C34.3 60.2747 34.6 60.3747 35 60.3747C35.4 60.3747 35.7 60.2747 36 59.9747L41.2 54.7747C45.5 55.3747 48.9 59.0747 48.9 63.5747V67.7747ZM53.9 48.0747C53.9 46.7747 55 45.6747 56.3 45.6747H61V47.3747C61 48.1747 60.3 48.8747 59.5 48.8747H53.8V48.0747H53.9ZM53.9 51.5747H59.6C60.1 51.5747 60.6 51.4747 61.1 51.2747V52.4747C61.1 54.4747 59.5 56.0747 57.5 56.0747C55.5 56.0747 53.9 54.4747 53.9 52.4747V51.5747ZM58.3 58.8747L57.4 59.7747L56.5 58.8747H58.3ZM51.6 67.7747V63.6747C51.6 62.2747 51.3 60.8747 50.9 59.6747C51.5 59.3747 52.1 59.1747 52.8 59.0747L56.5 62.7747C56.8 63.0747 57.1 63.1747 57.5 63.1747C57.9 63.1747 58.2 63.0747 58.5 62.7747L62.2 59.0747C65.1 59.5747 67.4 62.0747 67.4 65.1747V67.8747H51.6V67.7747Z" fill="#024F9F"/>
<path d="M41.7 9.37451C41.2 8.87451 40.3 8.87451 39.8 9.37451L33.1 16.0745L30.2 13.1745C29.7 12.6745 28.8 12.6745 28.3 13.1745C27.8 13.6745 27.8 14.5745 28.3 15.0745L32.2 18.9745C32.5 19.2745 32.8 19.3745 33.2 19.3745C33.6 19.3745 33.9 19.2745 34.2 18.9745L41.9 11.2745C42.3 10.7745 42.3 9.97451 41.7 9.37451Z" fill="#FF190A"/>
<path d="M40.6 1.67443C39.9 1.37443 39.1 1.67443 38.8 2.37443C38.5 3.07443 38.8 3.87443 39.5 4.17443C43.5 5.97443 46 9.87443 46 14.2744C46 20.3744 41.1 25.2744 35 25.2744C28.9 25.2744 24 20.3744 24 14.2744C24 9.97443 26.5 5.97443 30.5 4.27443C31.2 3.97443 31.5 3.17443 31.2 2.47443C30.9 1.77443 30.1 1.47443 29.4 1.77443C24.5 3.97443 21.3 8.87443 21.3 14.2744C21.3 21.8744 27.5 27.9744 35 27.9744C42.6 27.9744 48.7 21.7744 48.7 14.2744C48.7 8.77443 45.5 3.87443 40.6 1.67443Z" fill="#FF190A"/>
<path d="M35 0.474609C34.2 0.474609 33.6 1.07461 33.6 1.87461C33.6 2.67461 34.2 3.27461 35 3.27461C35.8 3.27461 36.4 2.67461 36.4 1.87461C36.4 1.07461 35.8 0.474609 35 0.474609Z" fill="#024F9F"/>
<path d="M36 62.6744C35.7 62.3744 35.4 62.2744 35 62.2744C34.6 62.2744 34.3 62.3744 34 62.6744C33.7 62.9744 33.6 63.2744 33.6 63.6744C33.6 64.0744 33.7 64.3744 34 64.6744C34.3 64.9744 34.6 65.0744 35 65.0744C35.4 65.0744 35.7 64.9744 36 64.6744C36.3 64.3744 36.4 64.0744 36.4 63.6744C36.4 63.2744 36.2 62.9744 36 62.6744Z" fill="#024F9F"/>
</svg>
