<svg width="70" height="71" viewBox="0 0 70 71" fill="none" xmlns="http://www.w3.org/2000/svg">
<path d="M61.3 62.2746H37.2C36.4 62.2746 35.8 62.8746 35.8 63.6746C35.8 64.4746 36.4 65.0746 37.2 65.0746H59.7C59.1 66.6746 57.6 67.7746 55.8 67.7746H12.3C12.9 66.9746 13.3 66.0746 13.5 65.0746H25.9C26.7 65.0746 27.3 64.4746 27.3 63.6746C27.3 62.8746 26.7 62.2746 25.9 62.2746H12.3C11.5 62.2746 10.9 62.8746 10.9 63.6746C10.9 65.9746 9.1 67.7746 6.8 67.7746C4.5 67.7746 2.7 65.9746 2.7 63.6746V3.17461H52.5V20.0746C52.5 20.8746 53.1 21.4746 53.9 21.4746C54.7 21.4746 55.3 20.8746 55.3 20.0746V1.87461C55.3 1.07461 54.7 0.474609 53.9 0.474609H1.4C0.6 0.474609 0 1.07461 0 1.87461V63.6746C0 67.3746 3.1 70.4746 6.8 70.4746H55.7C59.5 70.4746 62.5 67.3746 62.5 63.6746C62.6 62.8746 62 62.2746 61.3 62.2746Z" fill="#024F9F"/>
<path d="M32.2 62.6744C31.9 62.3744 31.6 62.2744 31.2 62.2744C30.8 62.2744 30.5 62.3744 30.2 62.6744C29.9 62.9744 29.8 63.2744 29.8 63.6744C29.8 64.0744 29.9 64.3744 30.2 64.6744C30.5 64.9744 30.8 65.0744 31.2 65.0744C31.6 65.0744 31.9 64.9744 32.2 64.6744C32.5 64.3744 32.6 64.0744 32.6 63.6744C32.6 63.2744 32.5 62.9744 32.2 62.6744Z" fill="#024F9F"/>
<path d="M38.9 38.6748H16.3C15.5 38.6748 14.9 39.2748 14.9 40.0748C14.9 40.8748 15.5 41.4748 16.3 41.4748H38.9C39.7 41.4748 40.3 40.8748 40.3 40.0748C40.3 39.2748 39.7 38.6748 38.9 38.6748Z" fill="#024F9F"/>
<path d="M38.9 45.2744H16.3C15.5 45.2744 14.9 45.8744 14.9 46.6744C14.9 47.4744 15.5 48.0744 16.3 48.0744H38.9C39.7 48.0744 40.3 47.4744 40.3 46.6744C40.3 45.8744 39.7 45.2744 38.9 45.2744Z" fill="#024F9F"/>
<path d="M39.9 52.1744C39.6 51.8744 39.3 51.7744 38.9 51.7744C38.5 51.7744 38.2 51.8744 37.9 52.1744C37.6 52.4744 37.5 52.7744 37.5 53.1744C37.5 53.5744 37.6 53.8744 37.9 54.1744C38.2 54.4744 38.5 54.5744 38.9 54.5744C39.3 54.5744 39.6 54.4744 39.9 54.1744C40.2 53.8744 40.3 53.5744 40.3 53.1744C40.3 52.8744 40.1 52.4744 39.9 52.1744Z" fill="#024F9F"/>
<path d="M32.8 51.7744H16.3C15.5 51.7744 14.9 52.3744 14.9 53.1744C14.9 53.9744 15.5 54.5744 16.3 54.5744H32.8C33.6 54.5744 34.2 53.9744 34.2 53.1744C34.2 52.4744 33.6 51.7744 32.8 51.7744Z" fill="#024F9F"/>
<path d="M38.7 22.3746C38.8 22.2746 38.8 22.1746 38.9 22.1746C40.8 19.4746 41.3 17.0746 40.2 15.1746C39.1 13.2746 36.7 12.4746 33.5 12.8746C33.4 12.8746 33.3 12.8746 33.2 12.8746C31.9 9.77461 29.9 7.97461 27.7 7.97461C25.4 7.97461 23.5 9.87461 22.2 12.8746C22.1 12.8746 22 12.8746 21.9 12.8746C18.6 12.5746 16.2 13.3746 15.2 15.1746C14.1 17.1746 14.7 19.7746 16.7 22.3746C14.7 25.0746 14.1 27.6746 15.2 29.5746C16.1 31.1746 18.1 31.9746 20.6 31.9746C21.1 31.9746 21.7 31.9746 22.2 31.8746C23.5 34.9746 25.5 36.7746 27.7 36.7746C30 36.7746 31.9 34.8746 33.2 31.8746C33.8 31.9746 34.3 31.9746 34.8 31.9746C37.3 31.9746 39.3 31.1746 40.2 29.5746C41.3 27.6746 40.8 25.2746 38.9 22.5746C38.8 22.4746 38.7 22.4746 38.7 22.3746ZM17.4 16.4746C17.8 15.7746 18.9 15.3746 20.4 15.3746C20.6 15.3746 20.9 15.3746 21.2 15.3746C21 16.2746 20.8 17.2746 20.6 18.2746C19.8 18.8746 19 19.5746 18.4 20.1746C17.3 18.5746 17 17.2746 17.4 16.4746ZM20.4 22.5746C20.3 22.4746 20.3 22.4746 20.2 22.3746C20.3 22.2746 20.3 22.2746 20.4 22.1746C20.4 22.2746 20.4 22.2746 20.4 22.3746C20.4 22.4746 20.4 22.4746 20.4 22.5746ZM17.4 28.2746C17 27.4746 17.3 26.1746 18.4 24.4746C19.1 25.1746 19.8 25.7746 20.6 26.3746C20.7 27.3746 20.9 28.3746 21.2 29.2746C19.2 29.3746 17.9 28.9746 17.4 28.2746ZM31.3 15.9746C31.3 16.0746 31.3 16.1746 31.4 16.2746C31.3 16.2746 31.3 16.1746 31.2 16.1746C31.1 16.1746 31.1 16.0746 31 16.0746C31.2 15.9746 31.2 15.9746 31.3 15.9746ZM27.6 10.5746C28.5 10.5746 29.5 11.5746 30.4 13.3746C29.5 13.6746 28.6 13.9746 27.6 14.3746C26.7 13.9746 25.7 13.6746 24.8 13.3746C25.7 11.5746 26.7 10.5746 27.6 10.5746ZM23.9 15.9746C24 15.9746 24.1 15.9746 24.2 16.0746C24.1 16.0746 24.1 16.1746 24 16.1746C23.9 16.1746 23.9 16.2746 23.8 16.2746C23.9 16.0746 23.9 15.9746 23.9 15.9746ZM23.9 28.7746C23.9 28.6746 23.9 28.5746 23.8 28.4746C23.9 28.4746 23.9 28.5746 24 28.5746C24.1 28.5746 24.1 28.6746 24.2 28.6746C24.1 28.7746 24 28.7746 23.9 28.7746ZM27.6 34.0746C26.7 34.0746 25.7 33.0746 24.8 31.3746C25.7 31.1746 26.6 30.7746 27.6 30.3746C28.5 30.7746 29.5 31.0746 30.4 31.3746C29.5 33.1746 28.5 34.0746 27.6 34.0746ZM31.3 28.7746C31.2 28.7746 31.1 28.7746 31 28.6746C31.1 28.6746 31.1 28.5746 31.2 28.5746C31.3 28.5746 31.3 28.4746 31.4 28.4746C31.4 28.5746 31.4 28.6746 31.3 28.7746ZM32 24.8746C31.3 25.3746 30.6 25.7746 29.9 26.2746C29.1 26.6746 28.4 27.0746 27.6 27.4746C26.9 27.1746 26.1 26.7746 25.3 26.2746C24.5 25.8746 23.8 25.3746 23.2 24.8746C23.1 24.0746 23.1 23.2746 23.1 22.3746C23.1 21.4746 23.1 20.6746 23.2 19.8746C23.9 19.3746 24.6 18.9746 25.3 18.4746C26 18.0746 26.8 17.6746 27.6 17.2746C28.4 17.5746 29.1 17.9746 29.9 18.4746C30.6 18.8746 31.4 19.3746 32 19.8746C32.1 20.6746 32.1 21.4746 32.1 22.3746C32.1 23.2746 32.1 24.0746 32 24.8746ZM37.8 28.2746C37.4 29.0746 36 29.4746 34 29.2746C34.2 28.3746 34.4 27.3746 34.6 26.3746C35.4 25.7746 36.1 25.0746 36.8 24.4746C37.9 26.0746 38.3 27.4746 37.8 28.2746ZM34.9 22.1746C35 22.2746 35 22.2746 35.1 22.3746C35 22.4746 35 22.4746 34.9 22.5746C34.9 22.4746 34.9 22.4746 34.9 22.3746C34.9 22.2746 34.9 22.2746 34.9 22.1746ZM36.8 20.2746C36.1 19.5746 35.4 18.9746 34.6 18.3746C34.5 17.3746 34.3 16.3746 34 15.4746C34.3 15.4746 34.5 15.4746 34.8 15.4746C36.3 15.4746 37.4 15.8746 37.8 16.5746C38.3 17.2746 37.9 18.6746 36.8 20.2746Z" fill="#024F9F"/>
<path d="M57.9 23.5747C51.2 23.5747 45.8 28.9747 45.8 35.6747C45.8 39.5747 47.6 43.0747 50.5 45.2747V57.9747C50.5 58.5747 50.8 58.9747 51.3 59.2747C51.8 59.4747 52.4 59.3747 52.8 58.9747L57.9 53.9747L63 58.9747C63.3 59.2747 63.6 59.3747 64 59.3747C64.2 59.3747 64.4 59.3747 64.5 59.2747C65 59.0747 65.3 58.5747 65.3 57.9747V45.2747C68.2 43.0747 70 39.5747 70 35.6747C70 28.9747 64.6 23.5747 57.9 23.5747ZM62.5 54.5747L58.8 50.9747C58.3 50.4747 57.4 50.4747 56.9 50.9747L53.2 54.5747V46.7747C54.6 47.3747 56.2 47.6747 57.8 47.6747C59.4 47.6747 61 47.3747 62.4 46.7747V54.5747H62.5ZM57.9 44.9747C52.7 44.9747 48.5 40.7747 48.5 35.5747C48.5 30.3747 52.7 26.1747 57.9 26.1747C63.1 26.1747 67.3 30.3747 67.3 35.5747C67.3 40.7747 63.1 44.9747 57.9 44.9747Z" fill="#FF190A"/>
<path d="M65 33.9748C64.8 33.4748 64.4 33.0748 63.9 33.0748L60.6 32.4748L59.1 29.4748C58.9 28.9748 58.4 28.6748 57.9 28.6748C57.4 28.6748 56.9 28.9748 56.7 29.4748L55.2 32.4748L51.9 32.9748C51.4 33.0748 51 33.3748 50.8 33.8748C50.6 34.3748 50.8 34.8748 51.1 35.2748L53.5 37.5748L53 40.8748C52.9 41.3748 53.1 41.8748 53.5 42.1748C53.8 42.4748 54 42.4748 54.3 42.4748C54.5 42.4748 54.7 42.3748 54.9 42.2748L57.8 40.7748L60.7 42.2748C61.2 42.4748 61.7 42.4748 62.1 42.1748C62.5 41.8748 62.7 41.3748 62.6 40.8748L62 37.5748L64.4 35.2748C65 34.9748 65.1 34.4748 65 33.9748ZM59.8 36.1748C59.5 36.4748 59.3 36.9748 59.4 37.3748L59.6 38.5748L58.5 37.9748C58.1 37.7748 57.6 37.7748 57.2 37.9748L56.1 38.5748L56.3 37.3748C56.4 36.9748 56.2 36.4748 55.9 36.1748L55 35.2748L56.3 35.0748C56.7 34.9748 57.1 34.7748 57.3 34.3748L57.9 33.2748L58.5 34.3748C58.7 34.7748 59.1 35.0748 59.5 35.0748L60.8 35.2748L59.8 36.1748Z" fill="#FF190A"/>
</svg>
