<svg width="62" height="71" viewBox="0 0 62 71" fill="none" xmlns="http://www.w3.org/2000/svg">
<path d="M60.2 43.7745C61.2 42.6745 61.8 41.2745 61.8 39.6745C61.8 36.2745 59 33.4745 55.6 33.4745H43.7C44.9 29.8745 45.4 25.0745 45.4 23.0745V21.0745C45.4 16.5745 41.7 12.8745 37.2 12.8745H35.1C34.2 12.8745 33.3 13.4745 33.1 14.4745L32 18.9745C30.4 25.2745 25.5 32.1745 20.3 33.3745C19.4 31.0745 17.2 29.4745 14.6 29.4745H2.3C1.2 29.4745 0.199997 30.3745 0.199997 31.5745V68.4745C0.199997 69.5745 1.1 70.5745 2.3 70.5745H14.6C17 70.5745 19.2 69.1745 20.2 67.0745L27.2 69.3745C29.5 70.1745 31.9 70.5745 34.3 70.5745H51.5C54.9 70.5745 57.7 67.7745 57.7 64.3745C57.7 63.5745 57.5 62.7745 57.3 62.0745C59.9 61.3745 61.8 58.9745 61.8 56.1745C61.8 54.5745 61.2 53.1745 60.2 52.0745C61.2 50.9745 61.8 49.5745 61.8 47.9745C61.8 46.3745 61.2 44.8745 60.2 43.7745ZM16.6 64.2745C16.6 65.3745 15.7 66.3745 14.5 66.3745H4.3V33.5745H14.6C15.7 33.5745 16.7 34.4745 16.7 35.6745V64.2745H16.6ZM51.5 45.8745H55.6C56.7 45.8745 57.7 46.7745 57.7 47.9745C57.7 49.0745 56.8 50.0745 55.6 50.0745H51.5C50.4 50.0745 49.4 50.9745 49.4 52.1745C49.4 53.2745 50.3 54.2745 51.5 54.2745H55.6C56.7 54.2745 57.7 55.1745 57.7 56.3745C57.7 57.4745 56.8 58.4745 55.6 58.4745H51.5C50.4 58.4745 49.4 59.3745 49.4 60.5745C49.4 61.7745 50.3 62.6745 51.5 62.6745C52.6 62.6745 53.6 63.5745 53.6 64.7745C53.6 65.8745 52.7 66.8745 51.5 66.8745H34.3C32.3 66.8745 30.3 66.5745 28.5 65.9745L20.8 63.3745V37.4745C24 36.8745 27.2 34.8745 30 31.4745C32.8 28.1745 35 23.8745 36 19.8745L36.7 16.9745H37.1C39.4 16.9745 41.2 18.7745 41.2 21.0745V23.0745C41.2 25.8745 40.3 31.0745 39.2 33.4745H35C33.9 33.4745 32.9 34.3745 32.9 35.5745C32.9 36.7745 33.8 37.6745 35 37.6745H55.5C56.6 37.6745 57.6 38.5745 57.6 39.7745C57.6 40.8745 56.7 41.8745 55.5 41.8745H51.4C50.3 41.8745 49.3 42.7745 49.3 43.9745C49.5 44.9745 50.4 45.8745 51.5 45.8745Z" fill="#024F9F"/>
<path d="M10.5 62.2747C11.6 62.2747 12.6 61.3747 12.6 60.1747C12.6 59.0747 11.7 58.0747 10.5 58.0747C9.29999 58.0747 8.39999 58.9747 8.39999 60.1747C8.39999 61.3747 9.39999 62.2747 10.5 62.2747Z" fill="#024F9F"/>
<path d="M39.2 0.474609C38.1 0.474609 37.1 1.37461 37.1 2.57461V6.77461C37.1 7.87461 38 8.87461 39.2 8.87461C40.3 8.87461 41.3 7.97461 41.3 6.77461V2.57461C41.3 1.37461 40.3 0.474609 39.2 0.474609Z" fill="#FF190A"/>
<path d="M30.5 9.47461L27.6 6.57461C26.8 5.77461 25.5 5.77461 24.7 6.57461C23.9 7.37461 23.9 8.67461 24.7 9.47461L27.6 12.3746C28.4 13.1746 29.7 13.1746 30.5 12.3746C31.3 11.5746 31.3 10.2746 30.5 9.47461Z" fill="#FF190A"/>
<path d="M53.7 6.57461C52.9 5.77461 51.6 5.77461 50.8 6.57461L47.9 9.47461C47.1 10.2746 47.1 11.5746 47.9 12.3746C48.7 13.1746 50 13.1746 50.8 12.3746L53.7 9.47461C54.5 8.67461 54.5 7.37461 53.7 6.57461Z" fill="#FF190A"/>
</svg>
